<svg width="16" height="15" viewBox="0 0 16 15" fill="none" xmlns="http://www.w3.org/2000/svg">
<path d="M5.29167 0.5H10.7083C11.0247 0.5 11.2862 0.735128 11.3276 1.04019L11.3333 1.125V3.83333H12.7917C14.2874 3.83333 15.5 5.0459 15.5 6.54167V11.9583C15.5 13.4541 14.2874 14.6667 12.7917 14.6667H3.20833C1.71256 14.6667 0.5 13.4541 0.5 11.9583V6.54167C0.5 5.0459 1.71256 3.83333 3.20833 3.83333H4.66667V1.125C4.66667 0.808587 4.90179 0.547091 5.20686 0.505706L5.29167 0.5H10.7083H5.29167ZM12.7917 5.08333H3.20833C2.40292 5.08333 1.75 5.73625 1.75 6.54167V11.9583C1.75 12.7637 2.40292 13.4167 3.20833 13.4167H12.7917C13.5971 13.4167 14.25 12.7637 14.25 11.9583V6.54167C14.25 5.73625 13.5971 5.08333 12.7917 5.08333ZM10.0833 1.75H5.91667V3.83333H10.0833V1.75Z" fill="#3F4959"/>
</svg>
