<svg width="20" height="20" viewBox="0 0 20 20" fill="none" xmlns="http://www.w3.org/2000/svg">
<path d="M9.99984 1.66666C14.6022 1.66666 18.3332 5.39762 18.3332 9.99999C18.3332 14.6024 14.6022 18.3333 9.99984 18.3333C5.39746 18.3333 1.6665 14.6024 1.6665 9.99999C1.6665 5.39762 5.39746 1.66666 9.99984 1.66666ZM13.5973 7.34004C13.4075 7.1502 13.1075 7.13754 12.903 7.30207L12.8607 7.34004L8.64567 11.5551L7.13896 10.0484C6.93556 9.84497 6.60578 9.84497 6.40239 10.0484C6.21255 10.2382 6.19989 10.5381 6.36442 10.7427L6.40239 10.7849L8.27739 12.6599C8.46723 12.8498 8.76715 12.8624 8.97167 12.6979L9.01396 12.6599L13.5973 8.07661C13.8007 7.87321 13.8007 7.54344 13.5973 7.34004Z" fill="#4EC155"/>
</svg>
