<svg width="20" height="20" viewBox="0 0 20 20" fill="none" xmlns="http://www.w3.org/2000/svg">
<path d="M4.58583 3.8559L4.5835 5.62504V14.3785C4.5835 15.8743 5.79606 17.0869 7.29183 17.0869L14.4721 17.0871C14.2146 17.8152 13.5201 18.3369 12.7038 18.3369H7.29183C5.1057 18.3369 3.3335 16.5647 3.3335 14.3785V5.62504C3.3335 4.80778 3.85637 4.11264 4.58583 3.8559ZM14.7918 1.6667C15.8274 1.6667 16.6668 2.50617 16.6668 3.5417V14.375C16.6668 15.4106 15.8274 16.25 14.7918 16.25H7.29183C6.2563 16.25 5.41683 15.4106 5.41683 14.375V3.5417C5.41683 2.50617 6.2563 1.6667 7.29183 1.6667H14.7918ZM14.7918 2.9167H7.29183C6.94665 2.9167 6.66683 3.19652 6.66683 3.5417V14.375C6.66683 14.7202 6.94665 15 7.29183 15H14.7918C15.137 15 15.4168 14.7202 15.4168 14.375V3.5417C15.4168 3.19652 15.137 2.9167 14.7918 2.9167Z" fill="#1A54F2"/>
</svg>
