<svg width="16" height="18" viewBox="0 0 16 18" fill="none" xmlns="http://www.w3.org/2000/svg">
<path d="M7.99984 0.458374C9.44403 0.458374 10.6242 1.58875 10.7039 3.01302L10.7082 3.16671H15.0832C15.4283 3.16671 15.7082 3.44653 15.7082 3.79171C15.7082 4.10812 15.473 4.36962 15.168 4.411L15.0832 4.41671H14.4198L13.3531 15.266C13.2425 16.3903 12.3319 17.2584 11.2187 17.3288L11.0724 17.3334H4.92728C3.79762 17.3334 2.84455 16.5121 2.66553 15.4112L2.64662 15.266L1.579 4.41671H0.916504C0.600091 4.41671 0.338595 4.18158 0.297209 3.87652L0.291504 3.79171C0.291504 3.47529 0.526632 3.2138 0.831695 3.17241L0.916504 3.16671H5.2915C5.2915 1.67094 6.50407 0.458374 7.99984 0.458374ZM13.164 4.41671H2.83484L3.89062 15.1437C3.93957 15.6414 4.33345 16.0286 4.82138 16.078L4.92728 16.0834H11.0724C11.5725 16.0834 11.9964 15.7293 12.0934 15.2485L12.1091 15.1437L13.164 4.41671ZM9.45817 6.70837C9.77458 6.70837 10.0361 6.9435 10.0775 7.24857L10.0832 7.33337V13.1667C10.0832 13.5119 9.80335 13.7917 9.45817 13.7917C9.14176 13.7917 8.88026 13.5566 8.83888 13.2515L8.83317 13.1667V7.33337C8.83317 6.9882 9.11299 6.70837 9.45817 6.70837ZM6.5415 6.70837C6.85792 6.70837 7.11941 6.9435 7.1608 7.24857L7.1665 7.33337V13.1667C7.1665 13.5119 6.88668 13.7917 6.5415 13.7917C6.22509 13.7917 5.96359 13.5566 5.92221 13.2515L5.9165 13.1667V7.33337C5.9165 6.9882 6.19633 6.70837 6.5415 6.70837ZM7.99984 1.70837C7.23469 1.70837 6.60718 2.29763 6.54634 3.0471L6.5415 3.16671H9.45817C9.45817 2.36129 8.80525 1.70837 7.99984 1.70837Z" fill="#F21C30"/>
</svg>
