<svg width="20" height="20" viewBox="0 0 20 20" fill="none" xmlns="http://www.w3.org/2000/svg">
<path d="M3.50813 3.65596L3.57745 3.57745C3.87786 3.27705 4.35055 3.25394 4.67746 3.50813L4.75596 3.57745L10 8.82087L15.2441 3.57745C15.5696 3.25201 16.0972 3.25201 16.4226 3.57745C16.7481 3.90289 16.7481 4.43053 16.4226 4.75596L11.1792 10L16.4226 15.2441C16.723 15.5445 16.7461 16.0172 16.492 16.3441L16.4226 16.4226C16.1222 16.723 15.6495 16.7461 15.3226 16.492L15.2441 16.4226L10 11.1792L4.75596 16.4226C4.43053 16.7481 3.90289 16.7481 3.57745 16.4226C3.25201 16.0972 3.25201 15.5696 3.57745 15.2441L8.82087 10L3.57745 4.75596C3.27705 4.45556 3.25394 3.98287 3.50813 3.65596L3.57745 3.57745L3.50813 3.65596Z" fill="#2D8033"/>
</svg>
