<svg width="16" height="16" viewBox="0 0 16 16" fill="none" xmlns="http://www.w3.org/2000/svg">
<path d="M6.6665 8C6.6665 7.264 7.26384 6.66667 7.99984 6.66667C8.73584 6.66667 9.33317 7.264 9.33317 8C9.33317 8.736 8.73584 9.33333 7.99984 9.33333C7.26384 9.33333 6.6665 8.736 6.6665 8ZM6.6665 12.6667C6.6665 11.9307 7.26384 11.3333 7.99984 11.3333C8.73584 11.3333 9.33317 11.9307 9.33317 12.6667C9.33317 13.4027 8.73584 14 7.99984 14C7.26384 14 6.6665 13.4027 6.6665 12.6667ZM6.6665 3.33333C6.6665 2.59733 7.26384 2 7.99984 2C8.73584 2 9.33317 2.59733 9.33317 3.33333C9.33317 4.06933 8.73584 4.66667 7.99984 4.66667C7.26384 4.66667 6.6665 4.06933 6.6665 3.33333Z" fill="#1A1A1A"/>
</svg>
