<svg width="32" height="32" viewBox="0 0 32 32" fill="none" xmlns="http://www.w3.org/2000/svg">
<rect width="32" height="32" rx="8" fill="#80D5F4"/>
<path d="M16.8333 7.66666C17.97 7.66666 18.8914 8.58809 18.8914 9.72474L18.8908 10.1667H21.8333C22.2936 10.1667 22.6667 10.5398 22.6667 11L22.6658 13.9158L21.3914 13.9167C20.3002 13.9167 19.4074 14.7659 19.3377 15.8394L19.3333 15.9747V16.0252C19.3333 17.1164 20.1825 18.0093 21.2561 18.0789L21.3914 18.0833L22.6658 18.0825L22.6667 21.0024C22.6667 21.4627 22.2936 21.8358 21.8333 21.8358L18.8908 21.835L18.8914 22.2752C18.8914 23.4119 17.97 24.3333 16.8333 24.3333C15.6967 24.3333 14.7753 23.4119 14.7753 22.2752L14.775 21.835L11.8333 21.8358C11.3731 21.8358 11 21.4627 11 21.0024L10.9992 18.0592L10.5581 18.0593C9.42143 18.0593 8.5 17.1379 8.5 16.0012C8.5 14.8646 9.42143 13.9431 10.5581 13.9431L10.9992 13.9425L11 11C11 10.5398 11.3731 10.1667 11.8333 10.1667H14.775L14.7753 9.72474C14.7753 8.58809 15.6967 7.66666 16.8333 7.66666Z" fill="white"/>
</svg>
