<svg width="16" height="16" viewBox="0 0 16 16" fill="none" xmlns="http://www.w3.org/2000/svg">
<path d="M12.7917 0.5C14.2874 0.5 15.5 1.71256 15.5 3.20833V12.7917C15.5 14.2874 14.2874 15.5 12.7917 15.5H3.20833C1.71256 15.5 0.5 14.2874 0.5 12.7917V3.20833C0.5 1.71256 1.71256 0.5 3.20833 0.5H12.7917ZM13.2754 14.1678L8.43722 9.42902C8.21635 9.21271 7.8751 9.19304 7.63233 9.36999L7.56267 9.42898L2.72371 14.1675C2.87533 14.2209 3.03844 14.25 3.20833 14.25H12.7917C12.9612 14.25 13.1241 14.2211 13.2754 14.1678L8.43722 9.42902L13.2754 14.1678ZM12.7917 1.75H3.20833C2.40292 1.75 1.75 2.40292 1.75 3.20833V12.7917C1.75 12.9653 1.78036 13.1319 1.83605 13.2864L6.68815 8.53583C7.38239 7.85608 8.47288 7.82375 9.20481 8.43882L9.31181 8.53593L14.1636 13.2872C14.2195 13.1325 14.25 12.9656 14.25 12.7917V3.20833C14.25 2.40292 13.5971 1.75 12.7917 1.75ZM10.7101 3.41667C11.7466 3.41667 12.5869 4.25692 12.5869 5.29343C12.5869 6.32994 11.7466 7.17019 10.7101 7.17019C9.67359 7.17019 8.83333 6.32994 8.83333 5.29343C8.83333 4.25692 9.67359 3.41667 10.7101 3.41667ZM10.7101 4.66667C10.3639 4.66667 10.0833 4.94728 10.0833 5.29343C10.0833 5.63958 10.3639 5.92019 10.7101 5.92019C11.0562 5.92019 11.3369 5.63958 11.3369 5.29343C11.3369 4.94728 11.0562 4.66667 10.7101 4.66667Z" fill="#00050D"/>
</svg>
