<svg width="20" height="20" viewBox="0 0 20 20" fill="none" xmlns="http://www.w3.org/2000/svg">
<path d="M7.53461 15.8358H12.4651C12.2662 17.0176 11.2382 17.9179 9.99984 17.9179C8.76152 17.9179 7.73348 17.0176 7.53461 15.8358ZM9.99984 1.66992C13.4516 1.66992 16.2498 4.46814 16.2498 7.91992V11.252L17.4318 13.8854C17.4775 13.9874 17.5012 14.0978 17.5012 14.2096C17.5012 14.6468 17.1468 15.0013 16.7095 15.0013H3.29333C3.18184 15.0013 3.07161 14.9777 2.96985 14.9322C2.57079 14.7535 2.39211 14.2852 2.57076 13.8861L3.74984 11.2523L3.74993 7.90916L3.75361 7.70089C3.86951 4.34195 6.62973 1.66992 9.99984 1.66992Z" fill="#51595D"/>
</svg>
