<svg width="20" height="20" viewBox="0 0 20 20" fill="none" xmlns="http://www.w3.org/2000/svg">
<path d="M9.99984 1.66669C14.6023 1.66669 18.3332 5.39835 18.3332 10C18.3332 14.6017 14.6023 18.3334 9.99984 18.3334C5.39734 18.3334 1.6665 14.6017 1.6665 10C1.6665 5.39835 5.39734 1.66669 9.99984 1.66669ZM9.99984 12.9167C9.5396 12.9167 9.1665 13.2898 9.1665 13.75C9.1665 14.2103 9.5396 14.5834 9.99984 14.5834C10.4601 14.5834 10.8332 14.2103 10.8332 13.75C10.8332 13.2898 10.4601 12.9167 9.99984 12.9167ZM9.99984 5.62502C8.73419 5.62502 7.70817 6.65103 7.70817 7.91669C7.70817 8.26187 7.98799 8.54169 8.33317 8.54169C8.64958 8.54169 8.91108 8.30656 8.95247 8.0015L8.95817 7.91669C8.95817 7.34139 9.42454 6.87502 9.99984 6.87502C10.5751 6.87502 11.0415 7.34139 11.0415 7.91669C11.0415 8.3657 10.929 8.58774 10.5041 9.02685L10.3912 9.14141C9.65948 9.87316 9.37484 10.3476 9.37484 11.25C9.37484 11.5952 9.65466 11.875 9.99984 11.875C10.345 11.875 10.6248 11.5952 10.6248 11.25C10.6248 10.801 10.7373 10.579 11.1623 10.1399L11.2751 10.0253C12.0069 9.29354 12.2915 8.81914 12.2915 7.91669C12.2915 6.65103 11.2655 5.62502 9.99984 5.62502Z" fill="#51595D"/>
</svg>
