<svg width="20" height="20" viewBox="0 0 20 20" fill="none" xmlns="http://www.w3.org/2000/svg">
<path d="M5.62207 3.33333H8.50891C8.85408 3.33333 9.13391 3.61315 9.13391 3.95833C9.13391 4.27474 8.89878 4.53624 8.59372 4.57762L8.50891 4.58333H5.62207C4.62968 4.58333 3.81737 5.3543 3.7514 6.32995L3.74707 6.45833V14.375C3.74707 15.3674 4.51804 16.1797 5.4937 16.2457L5.62207 16.25H13.5393C14.5317 16.25 15.3441 15.479 15.41 14.5034L15.4143 14.375V13.9602C15.4143 13.615 15.6942 13.3352 16.0393 13.3352C16.3558 13.3352 16.6173 13.5703 16.6586 13.8754L16.6643 13.9602V14.375C16.6643 16.0452 15.354 17.4094 13.7053 17.4957L13.5393 17.5H5.62207C3.95185 17.5 2.58768 16.1897 2.5014 14.541L2.49707 14.375V6.45833C2.49707 4.78811 3.80737 3.42393 5.4561 3.33766L5.62207 3.33333H8.50891H5.62207ZM12.0837 5.43321V3.12499C12.0837 2.60502 12.6727 2.32495 13.0729 2.6165L13.1414 2.67395L18.1369 7.46561C18.37 7.68923 18.3912 8.04842 18.2005 8.29672L18.1369 8.36764L13.1414 13.1608C12.7662 13.5209 12.1563 13.2897 12.0897 12.7991L12.0837 12.7099V10.4388L11.7975 10.4639C9.79775 10.6725 7.88105 11.5732 6.03536 13.1811C5.60277 13.558 4.9335 13.2017 5.00464 12.6324C5.55863 8.19941 7.87686 5.75607 11.8343 5.44958L12.0837 5.43321V3.12499V5.43321ZM13.3337 4.59053V6.04166C13.3337 6.38684 13.0539 6.66666 12.7087 6.66666C9.48089 6.66666 7.48038 8.06344 6.61601 10.9643L6.55013 11.1965L6.84362 10.9991C8.70735 9.78099 10.6652 9.16666 12.7087 9.16666C13.0251 9.16666 13.2866 9.40179 13.328 9.70685L13.3337 9.79166V11.244L16.8014 7.91673L13.3337 4.59053Z" fill="white"/>
</svg>
