<svg width="20" height="20" viewBox="0 0 20 20" fill="none" xmlns="http://www.w3.org/2000/svg">
<path d="M5.62207 3.33336H8.50891C8.85408 3.33336 9.13391 3.61318 9.13391 3.95836C9.13391 4.27477 8.89878 4.53627 8.59372 4.57765L8.50891 4.58336H5.62207C4.62968 4.58336 3.81737 5.35433 3.7514 6.32998L3.74707 6.45836V14.375C3.74707 15.3674 4.51804 16.1797 5.4937 16.2457L5.62207 16.25H13.5393C14.5317 16.25 15.3441 15.4791 15.41 14.5034L15.4143 14.375V13.9602C15.4143 13.615 15.6942 13.3352 16.0393 13.3352C16.3558 13.3352 16.6173 13.5703 16.6586 13.8754L16.6643 13.9602V14.375C16.6643 16.0452 15.354 17.4094 13.7053 17.4957L13.5393 17.5H5.62207C3.95185 17.5 2.58768 16.1897 2.5014 14.541L2.49707 14.375V6.45836C2.49707 4.78814 3.80737 3.42396 5.4561 3.33769L5.62207 3.33336H8.50891H5.62207ZM12.0837 5.43324V3.12502C12.0837 2.60505 12.6727 2.32498 13.0729 2.61653L13.1414 2.67398L18.1369 7.46564C18.37 7.68926 18.3912 8.04845 18.2005 8.29675L18.1369 8.36767L13.1414 13.1609C12.7662 13.5209 12.1563 13.2898 12.0897 12.7991L12.0837 12.7099V10.4388L11.7975 10.4639C9.79775 10.6725 7.88105 11.5732 6.03536 13.1812C5.60277 13.558 4.9335 13.2017 5.00464 12.6324C5.55863 8.19944 7.87686 5.75611 11.8343 5.44961L12.0837 5.43324V3.12502V5.43324ZM13.3337 4.59056V6.04169C13.3337 6.38687 13.0539 6.66669 12.7087 6.66669C9.48089 6.66669 7.48038 8.06347 6.61601 10.9643L6.55013 11.1965L6.84362 10.9991C8.70735 9.78102 10.6652 9.16669 12.7087 9.16669C13.0251 9.16669 13.2866 9.40182 13.328 9.70688L13.3337 9.79169V11.244L16.8014 7.91676L13.3337 4.59056Z" fill="#1A54F2"/>
</svg>
