<svg width="20" height="20" viewBox="0 0 20 20" fill="none" xmlns="http://www.w3.org/2000/svg">
<path d="M8.68575 2.85216L2.12702 14.7771C1.5772 15.7768 2.30044 17 3.44135 17H16.5588C17.6997 17 18.4229 15.7768 17.8731 14.7771L11.3144 2.85216C10.7445 1.81599 9.25564 1.816 8.68575 2.85216ZM10.0001 6.75C10.4143 6.75 10.7501 7.08579 10.7501 7.5V11.5C10.7501 11.9142 10.4143 12.25 10.0001 12.25C9.58585 12.25 9.25006 11.9142 9.25006 11.5V7.5C9.25006 7.08579 9.58585 6.75 10.0001 6.75ZM10.7501 13.75C10.7501 14.1642 10.4143 14.5 10.0001 14.5C9.58585 14.5 9.25006 14.1642 9.25006 13.75C9.25006 13.3358 9.58585 13 10.0001 13C10.4143 13 10.7501 13.3358 10.7501 13.75Z" fill="#D79F04"/>
</svg>
